<svg id="Layer_1" data-name="Layer 1" xmlns="http://www.w3.org/2000/svg" viewBox="0 0 71.36 71.36"><defs><style>.cls-1{fill:#00ff87;}</style></defs><path class="cls-1" d="M47,28.25a12.87,12.87,0,0,0,1.68-6.38,13,13,0,0,0-26,0,12.87,12.87,0,0,0,1.68,6.38C13.81,31.94,8.11,40.84,8.11,54c0,.86.05,1.68.1,2.44a4,4,0,0,0,3.95,3.68h47a4,4,0,0,0,3.95-3.67c.05-.77.1-1.58.1-2.45C63.25,40.84,57.55,31.94,47,28.25ZM35.7,16.76a5.08,5.08,0,1,1-5.08,5.08A5.09,5.09,0,0,1,35.7,16.76ZM16,52.19c0-10.62,7.24-17.95,19.69-17.95s19.7,7.33,19.7,17.95Z"/></svg>